<svg width="90" height="42" fill="none" xmlns="http://www.w3.org/2000/svg"><g clip-path="url(#clip0_5_4492)" fill="#fff"><path d="M82.492 18.086v1.34L90 17.84v-2.93l-7.508 3.177zm0 4.704l7.508.578v-2.497l-7.508.578v1.34zm0 3.363L90 29.33V26.4l-7.508-1.589v1.342zM3.51 12.665l-.514 7.419H2.34v-7.42H0v16.383h2.34v-7.769h.421l.75 7.769h2.573l-1.45-8.308 1.45-8.074H3.51zm8.05 2.223c-.078.672-.16 1.327-.246 1.965-.086.639-.172 1.294-.258 1.967-.084.67-.182 1.412-.292 2.223a189.907 189.907 0 01-.415 2.988L8.565 12.665H6.318l2.087 13.27h2.516l-1.02.246a1.39 1.39 0 01-.293.548.74.74 0 01-.522.188c-.174 0-.347 0-.502-.023a3.698 3.698 0 01-.457-.071 4.724 4.724 0 01-.468-.07v2.059l.561.14c.092.024.186.04.28.048l.458.047c.163.015.335.026.521.034.186.01.33.013.456.013.562 0 .995-.126 1.299-.376.304-.249.55-.682.737-1.299.227-.812.392-1.641.492-2.48.14-1.042.327-2.341.562-3.896.093-.608.187-1.271.281-1.989.094-.717.191-1.45.292-2.2a542.945 542.945 0 00.55-4.19h-2.33l-.258 2.224zm7.044-2.223h-3.768v16.382h2.34V15.325l-.979-.249h2.407v13.97h2.34v-16.38h-2.34zm7.489 0l-1.45 11.654h-.165l.212-11.654h-2.34v16.382h2.34v-.023l1.497-11.679h.163l-.233 11.702h2.34V12.665h-2.364zm6.909 16.467l3.229.913V14.29l-1.108-.19 1.836-.11c.812-.047 1.628-.087 2.434-.115.348-1.062.692-2.128 1.033-3.198l-7.424 2.07v16.385zm15.139-19.84c-.765-.637-2.215-.555-3.067-.273-1.112.368-2.286.961-3.1 1.884a4.757 4.757 0 00-1.13 3.22v13.244c-.019.75.08 1.5.29 2.22a4.02 4.02 0 00.856 1.5c.385.415.845.753 1.356.997.567.272 1.155.494 1.76.666a7.93 7.93 0 001.695.315 2.01 2.01 0 001.307-.348c.365-.257.652-.695.856-1.31.203-.613.308-1.477.308-2.57-.013-5.416-.024-10.833-.033-16.25.026-1.141-.173-2.523-1.098-3.295zm-2.003 18.223a7.997 7.997 0 01-.16 1.766c-.107.452-.41.621-.904.522a1.123 1.123 0 01-.921-.87 7.333 7.333 0 01-.174-1.738v-12.85a5.39 5.39 0 01.195-1.487 1.12 1.12 0 01.904-.844.72.72 0 01.565.065.87.87 0 01.322.42c.083.22.132.45.146.684.02.268.03.537.03.808l-.003 13.524zm6.511-16.523l-.096 3.303c-.032 1.103-.07 2.2-.113 3.292a438.236 438.236 0 01-.161 3.702c-.087 1.84-.174 3.684-.29 5.522a19.165 19.165 0 01-.34 2.834c-.14.587-.318.92-.534 1.003a1.44 1.44 0 01-.869-.031V34l.742.247c.969.325 1.717.407 2.243.22.527-.185.936-.754 1.197-1.7.372-1.36.455-2.8.532-4.2.132-2.398.198-4.843.29-7.256.042-1.07.077-2.05.097-2.933.021-.883.044-1.739.065-2.589.02-.85.048-1.71.08-2.598.031-.832.055-1.754.076-2.755h-1.236l1.242-.202.935-.15v25.688l3.229.913V5.298l-6.974 1.944c-.043 1.25-.081 2.5-.115 3.75zm16.316-7.144c-.615-.897-2.12-1.14-3.067-.816a6.035 6.035 0 00-3.1 2.434c-.87 1.412-1.121 3.226-1.13 4.869v20.69c.03 1.148.047 2.302.29 3.43.148.784.439 1.533.858 2.21.342.543.806 1 1.354 1.332a7.66 7.66 0 001.761.748c.548.17 1.12.248 1.694.231a1.808 1.808 0 001.307-.674c.367-.423.657-1.1.857-2.019.237-1.246.34-2.514.306-3.782l-.033-23.698c-.055-1.687-.12-3.531-1.097-4.955zM66.964 30.78c.013.887-.041 1.773-.162 2.652-.108.685-.409.974-.904.869-.495-.106-.801-.522-.92-1.23a16.321 16.321 0 01-.173-2.626V10.928c-.006-.751.059-1.5.193-2.24.128-.68.43-1.074.904-1.175a.551.551 0 01.565.153c.158.194.269.422.323.666.082.338.13.684.144 1.033.024.4.035.806.034 1.217l-.004 20.198zM76.23.12a5.663 5.663 0 00-3.083 2.636c-.9 1.685-1.141 3.736-1.115 5.623v24.515a20.89 20.89 0 00.306 3.982c.148.898.442 1.765.87 2.568a4.182 4.182 0 001.371 1.502 6.846 6.846 0 001.776.795c.557.18 1.149.228 1.728.139.504-.096.93-.407 1.274-.943.344-.535.612-1.343.791-2.421.208-1.392.3-2.8.275-4.206v-4.116l-3.1-.377v2.594a23.991 23.991 0 01-.162 3.091c-.108.802-.408 1.15-.902 1.044-.496-.106-.809-.578-.937-1.407a20.44 20.44 0 01-.193-3.069V9.184c-.008-.854.05-1.706.174-2.55.118-.75.424-1.181.92-1.288.495-.106.8.19.92.89.127.857.185 1.722.173 2.588v5.541l3.1-.275V6.842c-.047-1.913-.129-4.043-1.114-5.7C78.745.188 77.23-.226 76.229.12z"/></g><defs><clipPath id="clip0_5_4492"><path fill="#fff" d="M0 0h90v41.922H0z"/></clipPath></defs></svg>