<svg width="24" height="24" fill="none" xmlns="http://www.w3.org/2000/svg"><path d="M20.434 3.485A11.894 11.894 0 0011.988 0 11.956 11.956 0 003.53 3.482C1.256 5.732.003 8.722 0 11.89v.006c0 1.917.504 3.851 1.46 5.617L.033 24l6.563-1.493a12.012 12.012 0 005.387 1.28h.005c3.184 0 6.189-1.237 8.458-3.482 2.276-2.252 3.53-5.237 3.53-8.407.002-3.147-1.256-6.135-3.542-8.413zm-8.446 18.43h-.004a10.146 10.146 0 01-4.813-1.22l-.31-.17-4.364.993.948-4.308-.183-.315c-.909-1.567-1.389-3.296-1.389-5.002.004-5.522 4.54-10.02 10.115-10.02a10.034 10.034 0 017.124 2.94c1.93 1.923 2.993 4.439 2.992 7.085-.003 5.523-4.54 10.016-10.116 10.016z" fill="#3B4173"/><path d="M8.726 6.65h-.525c-.183 0-.48.068-.731.342-.252.273-.96.934-.96 2.28 0 1.344.982 2.643 1.12 2.826.137.182 1.896 3.03 4.684 4.125 2.316.91 2.788.73 3.29.684.503-.045 1.623-.661 1.851-1.3.229-.637.229-1.184.16-1.299-.068-.114-.251-.182-.525-.318-.275-.137-1.619-.81-1.87-.9-.252-.092-.434-.137-.617.136s-.722.905-.882 1.088c-.16.182-.32.205-.594.069-.274-.138-1.148-.431-2.196-1.362-.815-.725-1.38-1.649-1.541-1.922-.16-.274-.017-.422.12-.558.124-.122.29-.29.427-.45.137-.159.176-.273.268-.455.091-.182.045-.342-.023-.479-.069-.136-.595-1.488-.839-2.029-.205-.455-.421-.47-.617-.478z" fill="#3B4173"/></svg>